<svg xmlns="http://www.w3.org/2000/svg" xmlns:xlink="http://www.w3.org/1999/xlink" style="opacity:0.5;margin:auto;display:block;z-index:1;position:relative" width="1920" height="997" preserveAspectRatio="xMidYMid" viewBox="0 0 1920 997">
  <g transform="translate(960,498.5) scale(1,1) translate(-960,-498.5)"><path id="path0" d="M 304.7564164447874 60.86550833297235
  c 0 24.331630732488634 -5.953484115396154 6.988872657204182 -12.942356772600336 6.988872657204182
  S 278.8717028995867 85.19713906546099 278.8717028995867 60.86550833297235
  s 5.953484115396154 -6.988872657204182 12.942356772600336 -6.988872657204182
  S 304.7564164447874 36.53387760048371 304.7564164447874 60.86550833297235
  z" fill="none" stroke="none"></path>
  <circle cx="0" cy="0" r="6.022382648076408" fill="#437f79" opacity="0.9">
    <animateMotion begin="-8.16989061072763s" dur="10s" repeatCount="indefinite">
      <mpath xlink:href="#path0"></mpath>
    </animateMotion>
  </circle><path id="path1" d="M 46.1668846665399 51.37600572733132
  c 0 26.589954193423218 -6.506052621795042 7.637540034281137 -14.143592656076178 7.637540034281137
  S 17.87969935438754 77.96595992075453 17.87969935438754 51.37600572733132
  s 6.506052621795042 -7.637540034281137 14.143592656076178 -7.637540034281137
  S 46.1668846665399 24.7860515339081 46.1668846665399 51.37600572733132
  z" fill="none" stroke="none"></path>
  <circle cx="0" cy="0" r="5.245430646476179" fill="#7aab92" opacity="0.9">
    <animateMotion begin="-5.361681586033575s" dur="10s" repeatCount="indefinite">
      <mpath xlink:href="#path1"></mpath>
    </animateMotion>
  </circle><path id="path2" d="M 670.9083079904073 169.52806465892579
  c 0 32.41771818502194 -7.9319948750585585 9.311472244633961 -17.243467119692518 9.311472244633961
  S 636.4213737510223 201.9457828439477 636.4213737510223 169.52806465892579
  s 7.9319948750585585 -9.311472244633961 17.243467119692518 -9.311472244633961
  S 670.9083079904073 137.11034647390386 670.9083079904073 169.52806465892579
  z" fill="none" stroke="none"></path>
  <circle cx="0" cy="0" r="4.460096812936405" fill="#1d5167" opacity="0.9">
    <animateMotion begin="-1.9547358817386873s" dur="10s" repeatCount="indefinite">
      <mpath xlink:href="#path2"></mpath>
    </animateMotion>
  </circle><path id="path3" d="M 1552.359082537087 856.7450658168013
  c 0 29.046552585847525 -7.107135207175458 8.343158721466843 -15.4502939286423 8.343158721466843
  S 1521.4584946798022 885.7916184026489 1521.4584946798022 856.7450658168013
  s 7.107135207175458 -8.343158721466843 15.4502939286423 -8.343158721466843
  S 1552.359082537087 827.6985132309538 1552.359082537087 856.7450658168013
  z" fill="none" stroke="none"></path>
  <circle cx="0" cy="0" r="7.425326567823712" fill="#7aab92" opacity="0.9">
    <animateMotion begin="-0.7944655637297515s" dur="10s" repeatCount="indefinite">
      <mpath xlink:href="#path3"></mpath>
    </animateMotion>
  </circle><path id="path4" d="M 770.2039889459369 921.429221147412
  c 0 26.34528522812681 -6.44618681113741 7.5672627782917425 -14.013449589429152 7.5672627782917425
  S 742.1770897670787 947.7745063755389 742.1770897670787 921.429221147412
  s 6.44618681113741 -7.5672627782917425 14.013449589429152 -7.5672627782917425
  S 770.2039889459369 895.0839359192852 770.2039889459369 921.429221147412
  z" fill="none" stroke="none"></path>
  <circle cx="0" cy="0" r="6.861786037069757" fill="#7aab92" opacity="0.9">
    <animateMotion begin="-5.675236116890659s" dur="10s" repeatCount="indefinite">
      <mpath xlink:href="#path4"></mpath>
    </animateMotion>
  </circle><path id="path5" d="M 744.9304499609424 728.8581411813292
  c 0 22.91051430575305 -5.605764138641703 6.580679641014174 -12.186443779655878 6.580679641014174
  S 720.5575624016307 751.7686554870822 720.5575624016307 728.8581411813292
  s 5.605764138641703 -6.580679641014174 12.186443779655878 -6.580679641014174
  S 744.9304499609424 705.9476268755761 744.9304499609424 728.8581411813292
  z" fill="none" stroke="none"></path>
  <circle cx="0" cy="0" r="6.96439630625834" fill="#1d5167" opacity="0.9">
    <animateMotion begin="-8.676877043441412s" dur="10s" repeatCount="indefinite">
      <mpath xlink:href="#path5"></mpath>
    </animateMotion>
  </circle><path id="path6" d="M 1446.530212970983 372.1194744459293
  c 0 29.216152186111483 -7.148632981708128 8.391873500266064 -15.540506481974193 8.391873500266064
  S 1415.4492000070345 401.33562663204077 1415.4492000070345 372.1194744459293
  s 7.148632981708128 -8.391873500266064 15.540506481974193 -8.391873500266064
  S 1446.530212970983 342.90332225981786 1446.530212970983 372.1194744459293
  z" fill="none" stroke="none"></path>
  <circle cx="0" cy="0" r="4.640894914601209" fill="#b0c7a2" opacity="0.9">
    <animateMotion begin="-5.21210240801296s" dur="10s" repeatCount="indefinite">
      <mpath xlink:href="#path6"></mpath>
    </animateMotion>
  </circle><path id="path7" d="M 1434.1046503419632 496.19001359310374
  c 0 31.910571933144116 -7.807905898535261 9.165802576541395 -16.973708475076656 9.165802576541395
  S 1400.15723339181 528.1005855262479 1400.15723339181 496.19001359310374
  s 7.807905898535261 -9.165802576541395 16.973708475076656 -9.165802576541395
  S 1434.1046503419632 464.2794416599596 1434.1046503419632 496.19001359310374
  z" fill="none" stroke="none"></path>
  <circle cx="0" cy="0" r="6.49952109481711" fill="#e8f2d1" opacity="0.9">
    <animateMotion begin="-9.88369255905586s" dur="10s" repeatCount="indefinite">
      <mpath xlink:href="#path7"></mpath>
    </animateMotion>
  </circle><path id="path8" d="M 268.6127041017235 954.0686514270415
  c 0 31.690486506932555 -7.75405520914307 9.102586549863606 -16.856641759006678 9.102586549863606
  S 234.89942058371014 985.759137933974 234.89942058371014 954.0686514270415
  s 7.75405520914307 -9.102586549863606 16.856641759006678 -9.102586549863606
  S 268.6127041017235 922.3781649201089 268.6127041017235 954.0686514270415
  z" fill="none" stroke="none"></path>
  <circle cx="0" cy="0" r="4.786428639289971" fill="#b0c7a2" opacity="0.9">
    <animateMotion begin="-9.295788085962986s" dur="10s" repeatCount="indefinite">
      <mpath xlink:href="#path8"></mpath>
    </animateMotion>
  </circle><path id="path9" d="M 1398.7200023517776 199.0004623113859
  c 0 21.945209461339722 -5.369572527774612 6.303411228257155 -11.672983756031767 6.303411228257155
  S 1375.374034839714 220.9456717727256 1375.374034839714 199.0004623113859
  s 5.369572527774612 -6.303411228257155 11.672983756031767 -6.303411228257155
  S 1398.7200023517776 177.05525285004617 1398.7200023517776 199.0004623113859
  z" fill="none" stroke="none"></path>
  <circle cx="0" cy="0" r="4.011996777672341" fill="#b0c7a2" opacity="0.9">
    <animateMotion begin="-9.973005597054257s" dur="10s" repeatCount="indefinite">
      <mpath xlink:href="#path9"></mpath>
    </animateMotion>
  </circle><path id="path10" d="M 731.5551385544034 345.7803808255421
  c 0 37.23288280338737 -9.110173451892653 10.69455144352616 -19.80472489541881 10.69455144352616
  S 691.9456887635658 383.0132636289295 691.9456887635658 345.7803808255421
  s 9.110173451892653 -10.69455144352616 19.80472489541881 -10.69455144352616
  S 731.5551385544034 308.54749802215474 731.5551385544034 345.7803808255421
  z" fill="none" stroke="none"></path>
  <circle cx="0" cy="0" r="7.262989674538055" fill="#7aab92" opacity="0.9">
    <animateMotion begin="-1.815231036913325s" dur="10s" repeatCount="indefinite">
      <mpath xlink:href="#path10"></mpath>
    </animateMotion>
  </circle><path id="path11" d="M 1177.524454719963 43.834157198180236
  c 0 36.52986224188683 -8.938157782589329 10.492620005648345 -19.430777788237673 10.492620005648345
  S 1138.6628991434875 80.36401944006707 1138.6628991434875 43.834157198180236
  s 8.938157782589329 -10.492620005648345 19.430777788237673 -10.492620005648345
  S 1177.524454719963 7.304294956293404 1177.524454719963 43.834157198180236
  z" fill="none" stroke="none"></path>
  <circle cx="0" cy="0" r="5.2396403545608745" fill="#7aab92" opacity="0.9">
    <animateMotion begin="-2.547631048168455s" dur="10s" repeatCount="indefinite">
      <mpath xlink:href="#path11"></mpath>
    </animateMotion>
  </circle><path id="path12" d="M 1838.727193613077 766.9696495296841
  c 0 25.030823749723055 -6.1245632579109595 7.1897046940693885 -13.314267951980348 7.1897046940693885
  S 1812.0986577091162 792.0004732794072 1812.0986577091162 766.9696495296841
  s 6.1245632579109595 -7.1897046940693885 13.314267951980348 -7.1897046940693885
  S 1838.727193613077 741.9388257799611 1838.727193613077 766.9696495296841
  z" fill="none" stroke="none"></path>
  <circle cx="0" cy="0" r="7.095909259834504" fill="#e8f2d1" opacity="0.9">
    <animateMotion begin="-7.563725682931071s" dur="10s" repeatCount="indefinite">
      <mpath xlink:href="#path12"></mpath>
    </animateMotion>
  </circle><path id="path13" d="M 852.3166735024718 383.2559900803661
  c 0 27.57534652819047 -6.7471592568976675 7.920578258097263 -14.66773751499493 7.920578258097263
  S 822.981198472482 410.83133660855657 822.981198472482 383.2559900803661
  s 6.7471592568976675 -7.920578258097263 14.66773751499493 -7.920578258097263
  S 852.3166735024718 355.6806435521756 852.3166735024718 383.2559900803661
  z" fill="none" stroke="none"></path>
  <circle cx="0" cy="0" r="6.234624969944435" fill="#437f79" opacity="0.9">
    <animateMotion begin="-1.983863410236264s" dur="10s" repeatCount="indefinite">
      <mpath xlink:href="#path13"></mpath>
    </animateMotion>
  </circle><path id="path14" d="M 237.12201870256249 381.671725373268
  c 0 19.398863818624395 -4.746530508812351 5.572014075562326 -10.318544584374678 5.572014075562326
  S 216.48492953381313 401.0705891918924 216.48492953381313 381.671725373268
  s 4.746530508812351 -5.572014075562326 10.318544584374678 -5.572014075562326
  S 237.12201870256249 362.27286155464355 237.12201870256249 381.671725373268
  z" fill="none" stroke="none"></path>
  <circle cx="0" cy="0" r="7.3956398613686885" fill="#7aab92" opacity="0.9">
    <animateMotion begin="-1.2116222267623677s" dur="10s" repeatCount="indefinite">
      <mpath xlink:href="#path14"></mpath>
    </animateMotion>
  </circle><path id="path15" d="M 1633.1903197896534 712.237185286444
  c 0 23.28801363280675 -5.698130995261225 6.689110298784918 -12.387241294046143 6.689110298784918
  S 1608.415837201561 735.5251989192507 1608.415837201561 712.237185286444
  s 5.698130995261225 -6.689110298784918 12.387241294046143 -6.689110298784918
  S 1633.1903197896534 688.9491716536372 1633.1903197896534 712.237185286444
  z" fill="none" stroke="none"></path>
  <circle cx="0" cy="0" r="7.2709023334191905" fill="#7aab92" opacity="0.9">
    <animateMotion begin="-3.7969244191055607s" dur="10s" repeatCount="indefinite">
      <mpath xlink:href="#path15"></mpath>
    </animateMotion>
  </circle><path id="path16" d="M 491.1222134224238 671.1694056673775
  c 0 31.594632715181085 -7.730601621799626 9.07505407776478 -16.805655699564404 9.07505407776478
  S 457.510902023295 702.7640383825586 457.510902023295 671.1694056673775
  s 7.730601621799626 -9.07505407776478 16.805655699564404 -9.07505407776478
  S 491.1222134224238 639.5747729521964 491.1222134224238 671.1694056673775
  z" fill="none" stroke="none"></path>
  <circle cx="0" cy="0" r="6.488624025498099" fill="#7aab92" opacity="0.9">
    <animateMotion begin="-9.022408075979126s" dur="10s" repeatCount="indefinite">
      <mpath xlink:href="#path16"></mpath>
    </animateMotion>
  </circle><path id="path17" d="M 373.17338547040015 735.6053911358168
  c 0 22.82559867669122 -5.584986910254234 6.5562889816027985 -12.141275891857033 6.5562889816027985
  S 348.89083368668605 758.4309898125081 348.89083368668605 735.6053911358168
  s 5.584986910254234 -6.5562889816027985 12.141275891857033 -6.5562889816027985
  S 373.17338547040015 712.7797924591256 373.17338547040015 735.6053911358168
  z" fill="none" stroke="none"></path>
  <circle cx="0" cy="0" r="5.344865546013801" fill="#437f79" opacity="0.9">
    <animateMotion begin="-0.011152710994806192s" dur="10s" repeatCount="indefinite">
      <mpath xlink:href="#path17"></mpath>
    </animateMotion>
  </circle><path id="path18" d="M 756.7715816212651 713.6535091087727
  c 0 35.4740343575703 -8.679816917277837 10.189350294195723 -18.86916721147356 10.189350294195723
  S 719.0332471983179 749.127543466343 719.0332471983179 713.6535091087727
  s 8.679816917277837 -10.189350294195723 18.86916721147356 -10.189350294195723
  S 756.7715816212651 678.1794747512024 756.7715816212651 713.6535091087727
  z" fill="none" stroke="none"></path>
  <circle cx="0" cy="0" r="6.561431787877908" fill="#437f79" opacity="0.9">
    <animateMotion begin="-4.077863384472716s" dur="10s" repeatCount="indefinite">
      <mpath xlink:href="#path18"></mpath>
    </animateMotion>
  </circle><path id="path19" d="M 1356.0074790993544 987.4562086340165
  c 0 35.989639878840165 -8.805975715035359 10.337449752432814 -19.143425467468173 10.337449752432814
  S 1317.720628164418 1023.4458485128567 1317.720628164418 987.4562086340165
  s 8.805975715035359 -10.337449752432814 19.143425467468173 -10.337449752432814
  S 1356.0074790993544 951.4665687551764 1356.0074790993544 987.4562086340165
  z" fill="none" stroke="none"></path>
  <circle cx="0" cy="0" r="5.244169987808516" fill="#7aab92" opacity="0.9">
    <animateMotion begin="-7.094074459738078s" dur="10s" repeatCount="indefinite">
      <mpath xlink:href="#path19"></mpath>
    </animateMotion>
  </circle><path id="path20" d="M 692.6179033324488 555.2541143238
  c 0 26.164678301629284 -6.401995754653973 7.5153863206807525 -13.917382075334725 7.5153863206807525
  S 664.7831391817795 581.4187926254292 664.7831391817795 555.2541143238
  s 6.401995754653973 -7.5153863206807525 13.917382075334725 -7.5153863206807525
  S 692.6179033324488 529.0894360221707 692.6179033324488 555.2541143238
  z" fill="none" stroke="none"></path>
  <circle cx="0" cy="0" r="4.388574418690268" fill="#1d5167" opacity="0.9">
    <animateMotion begin="-0.15102486701601858s" dur="10s" repeatCount="indefinite">
      <mpath xlink:href="#path20"></mpath>
    </animateMotion>
  </circle><path id="path21" d="M 1215.844388642982 77.64603281236215
  c 0 30.648735076485423 -7.499158582544305 8.803360075160708 -16.30251865770501 8.803360075160708
  S 1183.2393513275722 108.29476788884757 1183.2393513275722 77.64603281236215
  s 7.499158582544305 -8.803360075160708 16.30251865770501 -8.803360075160708
  S 1215.844388642982 46.99729773587673 1215.844388642982 77.64603281236215
  z" fill="none" stroke="none"></path>
  <circle cx="0" cy="0" r="4.015826821612218" fill="#1d5167" opacity="0.9">
    <animateMotion begin="-4.610449993536385s" dur="10s" repeatCount="indefinite">
      <mpath xlink:href="#path21"></mpath>
    </animateMotion>
  </circle><path id="path22" d="M 100.26367073813317 143.793116132237
  c 0 30.37836086742102 -7.433003190964716 8.725699398089017 -16.158702589053732 8.725699398089017
  S 67.94626556002571 174.171476999658 67.94626556002571 143.793116132237
  s 7.433003190964716 -8.725699398089017 16.158702589053732 -8.725699398089017
  S 100.26367073813317 113.41475526481598 100.26367073813317 143.793116132237
  z" fill="none" stroke="none"></path>
  <circle cx="0" cy="0" r="4.935653020131513" fill="#1d5167" opacity="0.9">
    <animateMotion begin="-5.051519497340071s" dur="10s" repeatCount="indefinite">
      <mpath xlink:href="#path22"></mpath>
    </animateMotion>
  </circle><path id="path23" d="M 919.6961352651234 862.412719195363
  c 0 37.05000768307421 -9.06542741181603 10.64202348343621 -19.70745089525224 10.64202348343621
  S 880.281233474619 899.4627268784373 880.281233474619 862.412719195363
  s 9.06542741181603 -10.64202348343621 19.70745089525224 -10.64202348343621
  S 919.6961352651234 825.3627115122888 919.6961352651234 862.412719195363
  z" fill="none" stroke="none"></path>
  <circle cx="0" cy="0" r="4.707883548329861" fill="#b0c7a2" opacity="0.9">
    <animateMotion begin="-2.3285920277031447s" dur="10s" repeatCount="indefinite">
      <mpath xlink:href="#path23"></mpath>
    </animateMotion>
  </circle><path id="path24" d="M 1567.4559085761189 472.18387952675266
  c 0 24.75262658418671 -6.056493738683981 7.109796997585544 -13.166290736269525 7.109796997585544
  S 1541.1233271035799 496.9365061109394 1541.1233271035799 472.18387952675266
  s 6.056493738683981 -7.109796997585544 13.166290736269525 -7.109796997585544
  S 1567.4559085761189 447.43125294256595 1567.4559085761189 472.18387952675266
  z" fill="none" stroke="none"></path>
  <circle cx="0" cy="0" r="6.167799336837838" fill="#e8f2d1" opacity="0.9">
    <animateMotion begin="-5.079014547767571s" dur="10s" repeatCount="indefinite">
      <mpath xlink:href="#path24"></mpath>
    </animateMotion>
  </circle><path id="path25" d="M 502.0302036813381 879.0158869745422
  c 0 34.687790716963555 -8.487438154150656 9.96351435487251 -18.450952509023168 9.96351435487251
  S 465.12829866329173 913.7036776915058 465.12829866329173 879.0158869745422
  s 8.487438154150656 -9.96351435487251 18.450952509023168 -9.96351435487251
  S 502.0302036813381 844.3280962575786 502.0302036813381 879.0158869745422
  z" fill="none" stroke="none"></path>
  <circle cx="0" cy="0" r="5.561766534913824" fill="#437f79" opacity="0.9">
    <animateMotion begin="-4.376402883148498s" dur="10s" repeatCount="indefinite">
      <mpath xlink:href="#path25"></mpath>
    </animateMotion>
  </circle><path id="path26" d="M 374.24134595013345 696.6074895061871
  c 0 25.0141692577866 -6.120488222649913 7.184920957023811 -13.305409179673724 7.184920957023811
  S 347.63052759078596 721.6216587639738 347.63052759078596 696.6074895061871
  s 6.120488222649913 -7.184920957023811 13.305409179673724 -7.184920957023811
  S 374.24134595013345 671.5933202484005 374.24134595013345 696.6074895061871
  z" fill="none" stroke="none"></path>
  <circle cx="0" cy="0" r="5.340393508906677" fill="#437f79" opacity="0.9">
    <animateMotion begin="-0.23114990989353545s" dur="10s" repeatCount="indefinite">
      <mpath xlink:href="#path26"></mpath>
    </animateMotion>
  </circle><path id="path27" d="M 754.0813085429472 327.19224998910073
  c 0 33.82841483111179 -8.277165331016715 9.716672345106579 -17.99383767612329 9.716672345106579
  S 718.0936331907008 361.0206648202125 718.0936331907008 327.19224998910073
  s 8.277165331016715 -9.716672345106579 17.99383767612329 -9.716672345106579
  S 754.0813085429472 293.36383515798894 754.0813085429472 327.19224998910073
  z" fill="none" stroke="none"></path>
  <circle cx="0" cy="0" r="4.620373282659532" fill="#1d5167" opacity="0.9">
    <animateMotion begin="-9.374854408183026s" dur="10s" repeatCount="indefinite">
      <mpath xlink:href="#path27"></mpath>
    </animateMotion>
  </circle><path id="path28" d="M 720.7981695721876 241.8431580910178
  c 0 19.493708034480537 -4.769737072266514 5.599256563095474 -10.368993635361987 5.599256563095474
  S 700.0601823014636 261.3368661254984 700.0601823014636 241.8431580910178
  s 4.769737072266514 -5.599256563095474 10.368993635361987 -5.599256563095474
  S 720.7981695721876 222.34945005653728 720.7981695721876 241.8431580910178
  z" fill="none" stroke="none"></path>
  <circle cx="0" cy="0" r="6.42721624256258" fill="#b0c7a2" opacity="0.9">
    <animateMotion begin="-5.119209141961074s" dur="10s" repeatCount="indefinite">
      <mpath xlink:href="#path28"></mpath>
    </animateMotion>
  </circle><path id="path29" d="M 1895.882712946752 762.936451123564
  c 0 22.17716030595691 -5.426326457840521 6.370035407030176 -11.796361864870697 6.370035407030176
  S 1872.2899892170105 785.1136114295209 1872.2899892170105 762.936451123564
  s 5.426326457840521 -6.370035407030176 11.796361864870697 -6.370035407030176
  S 1895.882712946752 740.759290817607 1895.882712946752 762.936451123564
  z" fill="none" stroke="none"></path>
  <circle cx="0" cy="0" r="4.498029632508623" fill="#b0c7a2" opacity="0.9">
    <animateMotion begin="-2.435746197967321s" dur="10s" repeatCount="indefinite">
      <mpath xlink:href="#path29"></mpath>
    </animateMotion>
  </circle></g>
  </svg>